<svg width="23" height="27" viewBox="0 0 23 27" fill="none" xmlns="http://www.w3.org/2000/svg">
<path d="M4.59431 7.44343C4.67784 6.76124 4.95628 6.13474 5.36699 5.62658L4.32978 4.54761L1.13462 6.3923C0.765684 6.60809 0.431551 7.00488 0.222717 7.44343H4.59431Z" fill="#262262"/>
<path d="M11.451 19.4514L8.87542 11.4809C8.65962 11.5227 8.43687 11.5436 8.20715 11.5436C7.7686 11.5436 7.35092 11.467 6.9611 11.3208L4.44812 16.1797C4.80314 16.5069 5.03286 16.9802 5.03286 17.5023C5.03286 17.5719 5.02589 17.6415 5.01893 17.7111L10.8315 20.0362C10.9916 19.8064 11.2074 19.6046 11.451 19.4514Z" fill="#1C75BC"/>
<path d="M3.24394 15.7204C3.3762 15.7204 3.5015 15.7343 3.62681 15.7621L6.13977 10.9032C5.3114 10.3324 4.73362 9.42052 4.60136 8.36938H0.00701904V8.37634V11.7943L2.68009 15.8108C2.85412 15.7552 3.04207 15.7204 3.24394 15.7204Z" fill="#2B3990"/>
<path d="M12.5092 19.1588C12.6623 19.1588 12.8155 19.1797 12.9616 19.2076L16.0594 12.7685C15.3911 12.2882 14.9595 11.5085 14.9595 10.6175C14.9595 10.527 14.9665 10.4296 14.9734 10.3391L11.5485 9.35059C11.1935 10.165 10.5601 10.8194 9.75952 11.1953L12.3351 19.1658C12.3908 19.1658 12.4535 19.1588 12.5092 19.1588Z" fill="#1C75BC"/>
<path d="M19.1222 12.7896C18.976 12.894 18.8159 12.9845 18.6418 13.0541L19.331 16.0334C20.0828 16.103 20.6745 16.7365 20.6745 17.5022C20.6745 17.7389 20.6188 17.9686 20.5144 18.1705L22.5122 20.1684C22.7489 19.7855 22.9021 19.3469 22.9021 18.9571V16.5764L19.1222 12.7896Z" fill="#2EA8E0"/>
<path d="M10.4556 21.2123C10.4556 21.1078 10.4626 21.0034 10.4765 20.899L4.67094 18.574C4.53171 18.755 4.36465 18.9151 4.16974 19.0334L5.45059 23.4259L8.10973 24.9573L10.7689 22.2982C10.574 21.9849 10.4556 21.609 10.4556 21.2123Z" fill="#2EA8E0"/>
<path d="M18.4262 16.2416L17.737 13.2623C17.6952 13.2623 17.6465 13.2623 17.6048 13.2623C17.3611 13.2623 17.1175 13.2274 16.8947 13.1648L13.797 19.6038C13.8805 19.6735 13.9641 19.75 14.0337 19.8266L17.744 17.7731C17.7301 17.6826 17.7161 17.5921 17.7161 17.4946C17.7161 16.9725 18.0015 16.4992 18.4262 16.2416Z" fill="#2EA8E0"/>
<path d="M22.1641 6.71899L19.7764 9.10666C20.0758 9.53825 20.2567 10.0603 20.2567 10.6242C20.2567 11.188 20.0827 11.7101 19.7764 12.1417L22.902 15.2673V8.38271C22.902 7.81885 22.5957 7.15755 22.1641 6.71899Z" fill="#1C75BC"/>
<path d="M13.5951 22.9521C13.2819 23.1471 12.906 23.2654 12.5092 23.2654C12.1124 23.2654 11.7365 23.154 11.4232 22.9521L8.93811 25.4373L10.3025 26.2239C10.936 26.5859 11.9662 26.5859 12.5927 26.2239L15.3006 24.6576L13.5951 22.9521Z" fill="#5DCBEC"/>
<path d="M3.27869 19.2906C3.26477 19.2906 3.25085 19.2906 3.24388 19.2906C2.2554 19.2906 1.45488 18.4901 1.45488 17.5016C1.45488 17.0491 1.62195 16.6384 1.90039 16.3182L0 13.4641V18.9495C0 19.6804 0.515124 20.5714 1.14859 20.9334L4.29501 22.7503L3.27869 19.2906Z" fill="#1C75BC"/>
<path d="M19.8604 18.8242C19.6585 18.9217 19.4358 18.9843 19.1921 18.9843C18.8023 18.9843 18.4542 18.8381 18.1897 18.5945L14.4794 20.648C14.5281 20.829 14.556 21.017 14.556 21.2119C14.556 21.6087 14.4446 21.9846 14.2427 22.2978L16.1292 24.1843L21.7469 20.9404C21.7886 20.9125 21.8374 20.8847 21.8791 20.8569L19.8604 18.8242Z" fill="#5DCBEC"/>
<path d="M11.8476 7.90973C11.8476 8.09768 11.8337 8.28563 11.8058 8.46662L15.2307 9.4551C15.5648 8.77987 16.1704 8.27171 16.9153 8.06984L16.4907 3.35714L12.8778 1.2688L10.5041 5.0835C11.3255 5.75177 11.8476 6.7681 11.8476 7.90973Z" fill="#2B3990"/>
<path d="M6.0422 4.9861C6.64782 4.53362 7.39962 4.2691 8.21408 4.2691C8.75008 4.2691 9.26521 4.38744 9.72464 4.59628L12.0218 0.892947C11.444 0.767646 10.7688 0.83726 10.3094 1.10874L5.17206 4.07419L6.0422 4.9861Z" fill="#262262"/>
<path d="M21.3917 6.18327L17.4725 3.9209L17.8345 7.98621C18.3079 8.02798 18.7534 8.19504 19.1223 8.45261L21.3917 6.18327Z" fill="#2B3990"/>
<path d="M5.01899 17.7174L10.8316 20.0424C10.9986 19.8057 11.2075 19.6038 11.4581 19.4576L9.17481 12.3921C7.46933 13.4919 5.93091 14.8146 4.58044 16.3251C4.85889 16.6384 5.03292 17.056 5.03292 17.5155C5.03292 17.5781 5.02595 17.6477 5.01899 17.7174Z" fill="url(#paint0_linear_1_461)"/>
<path d="M12.5094 19.1584C12.6626 19.1584 12.8157 19.1793 12.9619 19.2071L16.0596 12.7681C15.3913 12.2878 14.9598 11.5081 14.9598 10.6171C14.9598 10.5266 14.9667 10.4291 14.9737 10.3386L13.9434 10.0393C12.5582 10.5266 11.2286 11.1461 9.98254 11.877L12.3354 19.1584C12.3911 19.1654 12.4537 19.1584 12.5094 19.1584Z" fill="url(#paint1_linear_1_461)"/>
<path d="M18.6418 13.0605L19.331 16.0399C20.0828 16.1095 20.6745 16.743 20.6745 17.5087C20.6745 17.7454 20.6188 17.9751 20.5144 18.177L22.5122 20.1748C22.7489 19.792 22.9021 19.3534 22.9021 18.9636V16.5829L19.1222 12.803C18.976 12.8935 18.8159 12.984 18.6418 13.0605Z" fill="url(#paint2_linear_1_461)"/>
<path d="M10.4556 21.2115C10.4556 21.1071 10.4626 21.0027 10.4765 20.8983L4.67094 18.5732C4.53171 18.7542 4.36465 18.9143 4.16974 19.0327L5.45059 23.4252L8.10973 24.9566L10.7689 22.2975C10.574 21.9842 10.4556 21.6083 10.4556 21.2115Z" fill="url(#paint3_linear_1_461)"/>
<path d="M14.0337 19.8405L17.744 17.787C17.7301 17.6965 17.7161 17.606 17.7161 17.5085C17.7161 16.9725 18.0015 16.5061 18.4262 16.2416L17.737 13.2623C17.6952 13.2623 17.6465 13.2623 17.6048 13.2623C17.3611 13.2623 17.1175 13.2274 16.8947 13.1648L13.797 19.6038C13.8805 19.6804 13.9571 19.757 14.0337 19.8405Z" fill="url(#paint4_linear_1_461)"/>
<path d="M20.2567 10.624C20.2567 11.1878 20.0827 11.7099 19.7764 12.1415L22.902 15.2671V8.84194C22.4008 8.80714 21.8996 8.79321 21.3914 8.79321C20.9459 8.79321 20.5004 8.80714 20.0618 8.83498L19.7834 9.11343C20.0758 9.53806 20.2567 10.0601 20.2567 10.624Z" fill="url(#paint5_linear_1_461)"/>
<path d="M12.5092 23.265C12.1124 23.265 11.7365 23.1537 11.4232 22.9518L8.93811 25.4369L10.3025 26.2235C10.936 26.5855 11.9662 26.5855 12.5927 26.2235L15.3006 24.6573L13.5881 22.9448C13.2819 23.1537 12.906 23.265 12.5092 23.265Z" fill="url(#paint6_linear_1_461)"/>
<path d="M3.27872 19.2905C3.26479 19.2905 3.25087 19.2905 3.24391 19.2905C2.9585 19.2905 2.68702 19.2209 2.45034 19.1025C2.04659 19.729 1.67069 20.3764 1.32959 21.0377L4.28809 22.7502L3.27872 19.2905Z" fill="url(#paint7_linear_1_461)"/>
<path d="M19.1988 18.9846C18.809 18.9846 18.4609 18.8384 18.1964 18.5947L14.4861 20.6483C14.5349 20.8293 14.5627 21.0172 14.5627 21.2121C14.5627 21.6089 14.4513 21.9848 14.2495 22.2981L16.1359 24.1845L21.7535 20.9406C21.7953 20.9128 21.844 20.8849 21.8858 20.8571L19.8601 18.8314C19.6582 18.9289 19.4355 18.9846 19.1988 18.9846Z" fill="url(#paint8_linear_1_461)"/>
<defs>
<linearGradient id="paint0_linear_1_461" x1="6.56795" y1="14.0884" x2="9.46104" y2="19.3924" gradientUnits="userSpaceOnUse">
<stop stop-color="white" stop-opacity="0.4"/>
<stop offset="1" stop-color="white" stop-opacity="0"/>
</linearGradient>
<linearGradient id="paint1_linear_1_461" x1="11.7497" y1="11.2621" x2="14.6429" y2="16.5662" gradientUnits="userSpaceOnUse">
<stop stop-color="white" stop-opacity="0.4"/>
<stop offset="1" stop-color="white" stop-opacity="0"/>
</linearGradient>
<linearGradient id="paint2_linear_1_461" x1="16.8503" y1="8.48001" x2="19.7435" y2="13.784" gradientUnits="userSpaceOnUse">
<stop stop-color="white" stop-opacity="0.4"/>
<stop offset="1" stop-color="white" stop-opacity="0"/>
</linearGradient>
<linearGradient id="paint3_linear_1_461" x1="4.25096" y1="15.3518" x2="7.14409" y2="20.6559" gradientUnits="userSpaceOnUse">
<stop stop-color="white" stop-opacity="0.4"/>
<stop offset="1" stop-color="white" stop-opacity="0"/>
</linearGradient>
<linearGradient id="paint4_linear_1_461" x1="12.6704" y1="10.7598" x2="15.5636" y2="16.0638" gradientUnits="userSpaceOnUse">
<stop stop-color="white" stop-opacity="0.4"/>
<stop offset="1" stop-color="white" stop-opacity="0"/>
</linearGradient>
<linearGradient id="paint5_linear_1_461" x1="19.4674" y1="7.05234" x2="22.3605" y2="12.3563" gradientUnits="userSpaceOnUse">
<stop stop-color="white" stop-opacity="0.4"/>
<stop offset="1" stop-color="white" stop-opacity="0"/>
</linearGradient>
<linearGradient id="paint6_linear_1_461" x1="6.24009" y1="14.2668" x2="9.13323" y2="19.5709" gradientUnits="userSpaceOnUse">
<stop stop-color="white" stop-opacity="0.4"/>
<stop offset="1" stop-color="white" stop-opacity="0"/>
</linearGradient>
<linearGradient id="paint7_linear_1_461" x1="0.725771" y1="17.275" x2="3.61883" y2="22.579" gradientUnits="userSpaceOnUse">
<stop stop-color="white" stop-opacity="0.4"/>
<stop offset="1" stop-color="white" stop-opacity="0"/>
</linearGradient>
<linearGradient id="paint8_linear_1_461" x1="12.2851" y1="10.9702" x2="15.1782" y2="16.2743" gradientUnits="userSpaceOnUse">
<stop stop-color="white" stop-opacity="0.4"/>
<stop offset="1" stop-color="white" stop-opacity="0"/>
</linearGradient>
</defs>
</svg>
